<svg xmlns="http://www.w3.org/2000/svg" enable-background="new 0 0 36 36" viewBox="0 0 36 36">
<path fill="#da4648" d="M8.114,5.564C6.309,12.241,1.61,15.891,0.74,19.109s-0.847,10.475,13.955,14.477s19.432-4.501,20.388-8.041C39.564,8.973,11.311-6.262,8.114,5.564z"/>
<path fill="#ffffff" d="M30,15.177c-0.827,0-1.5-0.673-1.5-1.5s0.673-1.5,1.5-1.5s1.5,0.673,1.5,1.5S30.827,15.177,30,15.177z M30,13.177c-0.275,0-0.5,0.224-0.5,0.5s0.225,0.5,0.5,0.5s0.5-0.224,0.5-0.5S30.275,13.177,30,13.177z"/>
<path fill="#ffffff" d="M10.948 23.915l-1.424-.473.774-2.331c-.937.648-2.003 1.098-2.802 1.007C7.146 22.079 6 21.822 6 20.167c0-4.156 3.46-9.667 6.068-9.667 1.991 0 2.714 1.496 2.714 2.502v.75h-1.5v-.743C13.273 12.703 13.136 12 12.068 12 10.743 12 7.5 16.359 7.5 20.167c0 .441.11.454.163.459.963.109 3.134-1.639 3.285-2.304.252-1.111 1.187-2.823 1.293-3.014.188-.341.604-.48.957-.324.355.156.533.556.411.923L10.948 23.915zM17.549 21.913c-.331 0-.629-.156-.818-.428-.122-.175-.192-.423-.212-.744-.682.736-1.429 1.236-2.157 1.163-.452-.048-.81-.288-1.008-.676-.623-1.221.785-3.921 1.419-5.026l.373-.65 1.301.747-.373.65c-.753 1.313-1.354 2.814-1.392 3.423.592-.283 1.904-1.998 2.929-4.123.175-.36.601-.52.971-.363.368.157.548.577.407.952-.488 1.307-.876 2.704-.973 3.438.408-.198.872-.574 1.14-.854l.519-.542 1.084 1.037-.519.542c-.231.242-1.448 1.448-2.687 1.454C17.552 21.913 17.551 21.913 17.549 21.913zM14.696 20.561h.01H14.696z"/>
<path fill="#ffffff" d="M20.378,22.121c-0.066,0-0.134-0.003-0.202-0.008c-0.438-0.035-0.796-0.263-1.009-0.642c-0.939-1.667,1.664-7.245,2.826-9.566l0.336-0.67l1.342,0.672l-0.336,0.67c-1.779,3.55-3.051,7.109-2.894,8.041c1.113-0.077,2.303-1.982,2.721-2.939l0.301-0.687l1.374,0.602l-0.3,0.687C24.36,18.683,22.785,22.12,20.378,22.121z M20.476,20.738h0.01H20.476z"/>
<path fill="#ffffff" d="M20.904,25.5c-0.092,0-0.184-0.017-0.274-0.052c-0.38-0.149-0.571-0.576-0.429-0.959c0.137-0.37,0.43-1.127,0.846-2.042l2.725-6.579l1.386,0.574l-0.096,0.231c0.554-0.387,1.136-0.618,1.734-0.618c0.771,0,1.271,0.253,1.488,0.753c0.407,0.938-0.54,2.023-1.701,3.271c0.897-0.567,1.742-1.451,2.086-1.872l0.474-0.582l1.163,0.948l-0.475,0.581c-0.276,0.338-2.76,3.297-5.121,2.905c-0.331-0.055-0.591-0.268-0.693-0.57c-0.215-0.63,0.285-1.165,1.28-2.231c0.395-0.423,1.131-1.211,1.441-1.701c-1.353,0.08-3.142,2.925-4.375,5.63l-0.766,1.849C21.478,25.325,21.198,25.5,20.904,25.5z"/>
</svg>
