<svg width="32" height="32" xmlns="http://www.w3.org/2000/svg">
   <g>
        <polygon fill="#F58134" points="5.711540222167969,27.50767821073532 3.461538076400757,2.3076927065849304 28.151517868041992,2.3076927065849304 25.901517868041992,27.50767821073532 15.791542053222656,30.307677447795868 5.711540222167969,27.50767821073532 " class="cls-1"/>
        <polygon fill="#FC9C37" points="15.811542510986328,28.16767805814743 23.981517791748047,25.89767760038376 25.901517868041992,4.367692172527313 15.811542510986328,4.367692172527313 15.811542510986328,28.16767805814743 " class="cls-2"/>
        <polyline fill="#fff" points="15.83154296875,25.50767821073532 22.161518096923828,23.75767821073532 23.011516571044922,14.267695605754852 12.411542892456055,14.267695605754852 12.83154296875,9.437695682048798 15.83154296875,9.327695071697235 16.39154052734375,9.327695071697235 19.551517486572266,9.437695682048798 19.841516494750977,12.707695186138153 22.941516876220703,12.707695186138153 22.351516723632812,6.097695529460907 10.071542739868164,6.097695529460907 9.071542739868164,17.34768408536911 19.601516723632812,17.34768408536911 19.241518020629883,21.34767836332321 15.83154296875,22.287676990032196 15.83154296875,22.287676990032196 12.3915433883667,21.357676684856415 12.131543159484863,18.877677142620087 9.031542778015137,18.877677142620087 9.461543083190918,23.73767775297165 " class="cls-3"/>
    </g>
</svg>
